<?xml version="1.0" ?><svg id="Layer_1" style="enable-background:new 0 0 64 64;" version="1.1" viewBox="0 0 64 64" xml:space="preserve" xmlns="http://www.w3.org/2000/svg" xmlns:xlink="http://www.w3.org/1999/xlink"><style type="text/css">
	.st0{fill:#DB785A;}
	.st1{fill:#63312D;}
	.st2{fill:#F9A287;}
	.st3{fill:#FFCDC0;}
	.st4{fill:#84DBFF;}
	.st5{fill:#5CBFD6;}
	.st6{fill:#FFFBE1;}
	.st7{fill:#F9DD9D;}
	.st8{fill:#EFC36A;}
</style><g id="Layer_2_1_"><g><path class="st0" d="M55.5,12.4h-6.5v31.4h6.5c1.7,0,3.1-1.4,3.1-3.1V15.5C58.7,13.8,57.3,12.4,55.5,12.4z"/></g><g id="XMLID_176_"><path class="st1" d="M55.5,44.3h-6.5v-1h6.5c1.4,0,2.6-1.2,2.6-2.6V15.5c0-1.4-1.2-2.6-2.6-2.6h-6.5v-1h6.5c2,0,3.6,1.6,3.6,3.6    v25.2C59.2,42.6,57.5,44.3,55.5,44.3z"/></g><g id="XMLID_178_"><path class="st2" d="M51.8,43.8H11.5c-1.7,0-3-1.3-3-3V15.4c0-1.7,1.3-3,3-3h40.3c1.7,0,3,1.3,3,3v25.4    C54.8,42.4,53.4,43.8,51.8,43.8z"/></g><g><path class="st3" d="M10.1,42.5V16.1c0-1.1,0.9-2,2-2h41.3c0.4,0,0.8,0.1,1.1,0.2c-0.4-1.1-1.5-1.9-2.8-1.9H11.5c-1.7,0-3,1.3-3,3    v25.4c0,1.3,0.8,2.3,1.9,2.8C10.2,43.2,10.1,42.8,10.1,42.5z"/></g><g id="XMLID_177_"><path class="st1" d="M51.8,44.3H11.5c-1.9,0-3.5-1.6-3.5-3.5V15.4c0-1.9,1.6-3.5,3.5-3.5h40.3c1.9,0,3.5,1.6,3.5,3.5v25.4    C55.3,42.7,53.7,44.3,51.8,44.3z M11.5,12.9C10.1,12.9,9,14,9,15.4v25.4c0,1.4,1.1,2.5,2.5,2.5h40.3c1.4,0,2.5-1.1,2.5-2.5V15.4    c0-1.4-1.1-2.5-2.5-2.5H11.5z"/></g><g id="XMLID_174_"><rect class="st4" height="24.1" width="38.9" x="12.3" y="16.1"/></g><g><polygon class="st5" points="13.9,17.8 51.2,17.8 51.2,16.1 12.3,16.1 12.3,40.2 13.9,40.2   "/></g><g id="XMLID_173_"><path class="st1" d="M51.2,40.7H12.3c-0.3,0-0.5-0.2-0.5-0.5V16.1c0-0.3,0.2-0.5,0.5-0.5h38.9c0.3,0,0.5,0.2,0.5,0.5v24.1    C51.7,40.5,51.5,40.7,51.2,40.7z M12.8,39.7h37.9V16.6H12.8V39.7z"/></g><g><path class="st6" d="M24.9,34.3l-6.1-5.3c-0.2-0.2-0.3-0.4-0.3-0.7c0-0.3,0.1-0.5,0.3-0.7l6.1-5.3l1.3,1.4l-5.3,4.6l5.3,4.6    L24.9,34.3z"/></g><g><path class="st4" d="M24.9,34.3l-6.1-5.3c-0.2-0.2-0.3-0.4-0.3-0.7c0-0.3,0.1-0.5,0.3-0.7l6.1-5.3l1.3,1.4l-5.3,4.6l5.3,4.6    L24.9,34.3z"/></g><g><rect class="st6" height="1" width="1.9" x="14.3" y="18.6"/></g><g><rect class="st6" height="1" width="1.9" x="14.3" y="20.7"/></g><g><rect class="st6" height="1" width="1.9" x="14.3" y="22.7"/></g><g><rect class="st6" height="1" width="1.9" x="14.3" y="24.8"/></g><g><rect class="st6" height="1" width="1.9" x="14.3" y="26.8"/></g><g><rect class="st6" height="1" width="1.9" x="14.3" y="28.9"/></g><g><rect class="st6" height="1" width="1.9" x="14.3" y="30.9"/></g><g><rect class="st6" height="1" width="1.9" x="14.3" y="32.9"/></g><g><rect class="st6" height="1" width="1.9" x="14.3" y="35"/></g><g><rect class="st6" height="1" width="1.9" x="14.3" y="37"/></g><g><rect class="st6" height="1" width="3.6" x="17.7" y="18.6"/></g><g><rect class="st6" height="1" width="4.7" x="17.7" y="20.7"/></g><g><rect class="st6" height="1" width="2.8" x="17.7" y="22.7"/></g><g><rect class="st6" height="1" width="2.8" x="21.6" y="22.7"/></g><g><rect class="st6" height="1" width="4.4" x="17.7" y="24.8"/></g><g><rect class="st6" height="1" width="4.4" x="17.7" y="26.8"/></g><g><rect class="st6" height="1" width="4.4" x="17.7" y="28.9"/></g><g><rect class="st6" height="1" width="4.4" x="17.7" y="30.9"/></g><g><rect class="st6" height="1" width="2.4" x="17.7" y="32.9"/></g><g><rect class="st6" height="1" width="4.1" x="17.7" y="35"/></g><g><rect class="st6" height="1" width="5.5" x="17.7" y="37"/></g><g><rect class="st6" height="1" width="2.4" x="21.2" y="32.9"/></g><g><rect class="st6" height="1" width="1.4" x="22.7" y="35"/></g><g><rect class="st6" height="1" width="2.2" x="24.1" y="37"/></g><g><rect class="st6" height="1" width="2.2" x="22.3" y="18.6"/></g><g><path class="st7" d="M49.1,43.8v1.7c0,2-1.6,3.6-3.6,3.6H6.7c-0.7,0-1.4-0.2-2-0.6h0c-1-0.7-1.6-1.7-1.6-3v-1.7H49.1z"/></g><g><path class="st6" d="M4.5,45.4v1.9c0,0.4,0.1,0.8,0.2,1.1c-1-0.7-1.6-1.7-1.6-3v-1.7h46v1.7C49.1,45.4,4.5,45.4,4.5,45.4z"/></g><g><path class="st1" d="M45.5,49.6H6.7c-2.3,0-4.1-1.8-4.1-4.1v-1.7c0-0.3,0.2-0.5,0.5-0.5h46c0.3,0,0.5,0.2,0.5,0.5v1.7    C49.6,47.7,47.7,49.6,45.5,49.6z M3.6,44.3v1.2c0,1.7,1.4,3.1,3.1,3.1h38.8c1.7,0,3.1-1.4,3.1-3.1v-1.2H3.6z"/></g><g><path class="st8" d="M49.1,43.8v1.7c0,2-1.6,3.6-3.6,3.6h11.8c2,0,3.6-1.6,3.6-3.6v-1.7H49.1z"/></g><g><path class="st1" d="M57.3,49.6H45.5c-0.3,0-0.5-0.2-0.5-0.5s0.2-0.5,0.5-0.5c1.7,0,3.1-1.4,3.1-3.1v-1.7c0-0.3,0.2-0.5,0.5-0.5    h11.8c0.3,0,0.5,0.2,0.5,0.5v1.7C61.4,47.7,59.6,49.6,57.3,49.6z M48.2,48.6h9.2c1.7,0,3.1-1.4,3.1-3.1v-1.2H49.6v1.2    C49.6,46.7,49,47.8,48.2,48.6z"/></g><g><path class="st6" d="M39.2,34.3l6.1-5.3c0.2-0.2,0.3-0.4,0.3-0.7c0-0.3-0.1-0.5-0.3-0.7l-6.1-5.3l-1.3,1.4l5.3,4.6l-5.3,4.6    L39.2,34.3z"/></g><g><rect class="st6" height="1.9" transform="matrix(0.4836 -0.8753 0.8753 0.4836 -8.3898 42.5505)" width="16.9" x="23.4" y="27.4"/></g><g><path class="st6" d="M24.9,34.3l-6.1-5.3c-0.2-0.2-0.3-0.4-0.3-0.7c0-0.3,0.1-0.5,0.3-0.7l6.1-5.3l1.3,1.4l-5.3,4.6l5.3,4.6    L24.9,34.3z"/></g><g><path class="st1" d="M24.9,35l-6.5-5.7c-0.3-0.3-0.5-0.7-0.5-1.1c0-0.4,0.2-0.8,0.5-1.1l6.5-5.7l1.9,2.2l-5.2,4.6l5.2,4.6L24.9,35    z M24.8,22.9l-5.7,5c-0.1,0.1-0.2,0.2-0.2,0.3c0,0.1,0.1,0.3,0.2,0.3l5.7,5l0.6-0.7l-5.3-4.6l5.3-4.6L24.8,22.9z"/></g><g><path class="st4" d="M39.2,34.3l6.1-5.3c0.2-0.2,0.3-0.4,0.3-0.7c0-0.3-0.1-0.5-0.3-0.7l-6.1-5.3l-1.3,1.4l5.3,4.6l-5.3,4.6    L39.2,34.3z"/></g><g><path class="st6" d="M39.2,34.3l6.1-5.3c0.2-0.2,0.3-0.4,0.3-0.7c0-0.3-0.1-0.5-0.3-0.7l-6.1-5.3l-1.3,1.4l5.3,4.6l-5.3,4.6    L39.2,34.3z"/></g><g><path class="st1" d="M39.1,35l-1.9-2.2l5.2-4.6l-5.2-4.6l1.9-2.2l6.5,5.7c0.3,0.3,0.5,0.7,0.5,1.1c0,0.4-0.2,0.8-0.5,1.1L39.1,35z     M38.6,32.9l0.6,0.7l5.7-5c0.1-0.1,0.2-0.2,0.2-0.3S45,28,44.9,27.9l-5.7-5l-0.6,0.7l5.3,4.6L38.6,32.9z"/></g><g><rect class="st4" height="1.9" transform="matrix(0.4836 -0.8753 0.8753 0.4836 -8.3898 42.5505)" width="16.9" x="23.4" y="27.4"/></g><g><rect class="st6" height="1.9" transform="matrix(0.4836 -0.8753 0.8753 0.4836 -8.3898 42.5505)" width="16.9" x="23.4" y="27.4"/></g><g><path class="st1" d="M28.8,36.9l-2.6-1.4l8.7-15.7l2.6,1.4L28.8,36.9z M27.6,35.1l0.8,0.4l7.7-13.9l-0.8-0.4L27.6,35.1z"/></g></g></svg>